# xmcd
#
# Track frame offsets: 
#        150
#        12870
#        30413
#        43816
#        58821
#        75964
#        89608
#        104864
#        120015
#        137387
#        149310
#        164445
#
# Disc length: 2367 seconds
#
# Revision: 0
# Processed by: cddbd v1.5.2PL0 Copyright (c) Steve Scherf et al.
# Submitted via: ExactAudioCopy v0.99pb4
#
DISCID=95093d0c
DTITLE=Balsam Range - Last Train To Kitty Hawk
DYEAR=2009
DGENRE=Bluegrass
TTITLE0=Julie's Train
TTITLE1=Place No Wreath
TTITLE2=I'm Lonesome Without You
TTITLE3=Somewhere In Between
TTITLE4=Last Train To Kitty Hawk
TTITLE5=Caney Fork River
TTITLE6=Jack Diamond
TTITLE7=Spring Will Bring Flowers
TTITLE8=Don't Take Me Tonight As I Am
TTITLE9=Down In Caroline
TTITLE10=The Holy Hills
TTITLE11=Jaxon Point
EXTD=
EXTT0=
EXTT1=
EXTT2=
EXTT3=
EXTT4=
EXTT5=
EXTT6=
EXTT7=
EXTT8=
EXTT9=
EXTT10=
EXTT11=
PLAYORDER=
